<svg xmlns="http://www.w3.org/2000/svg" xmlns:xlink="http://www.w3.org/1999/xlink" width="500" zoomAndPan="magnify" viewBox="0 0 375 374.999991" height="500" preserveAspectRatio="xMidYMid meet" version="1.0"><defs><g/><clipPath id="1d122bf5c4"><path d="M 62.304688 71 L 151 71 L 151 200 L 62.304688 200 Z M 62.304688 71 " clip-rule="nonzero"/></clipPath><clipPath id="76bd5aec08"><path d="M 224 71 L 312.804688 71 L 312.804688 200 L 224 200 Z M 224 71 " clip-rule="nonzero"/></clipPath><clipPath id="7c4bcd81ee"><path d="M 143 38.582031 L 230 38.582031 L 230 232.832031 L 143 232.832031 Z M 143 38.582031 " clip-rule="nonzero"/></clipPath></defs><g fill="#5271ff" fill-opacity="1"><g transform="translate(24.557081, 268.533139)"><g><path d="M 23.734375 -1.75 C 23.578125 -1.875 23.484375 -2.039062 23.453125 -2.25 C 23.429688 -2.457031 23.488281 -2.640625 23.625 -2.796875 L 23.78125 -2.984375 C 24.019531 -3.273438 24.117188 -3.601562 24.078125 -3.96875 C 24.046875 -4.34375 23.882812 -4.648438 23.59375 -4.890625 L 18.4375 -9.078125 C 18.132812 -9.328125 17.800781 -9.425781 17.4375 -9.375 C 17.082031 -9.332031 16.785156 -9.164062 16.546875 -8.875 L 9.40625 -0.109375 C 9.15625 0.179688 9.046875 0.503906 9.078125 0.859375 C 9.109375 1.222656 9.273438 1.53125 9.578125 1.78125 L 14.734375 5.96875 C 15.023438 6.207031 15.351562 6.304688 15.71875 6.265625 C 16.082031 6.234375 16.390625 6.070312 16.640625 5.78125 L 16.78125 5.59375 C 16.914062 5.4375 17.085938 5.347656 17.296875 5.328125 C 17.503906 5.304688 17.6875 5.359375 17.84375 5.484375 L 20.3125 7.5 C 20.457031 7.625 20.539062 7.789062 20.5625 8 C 20.59375 8.207031 20.539062 8.390625 20.40625 8.546875 L 20.265625 8.734375 C 19.734375 9.390625 19.113281 9.894531 18.40625 10.25 C 17.695312 10.601562 16.957031 10.820312 16.1875 10.90625 C 15.425781 10.988281 14.660156 10.921875 13.890625 10.703125 C 13.128906 10.492188 12.425781 10.125 11.78125 9.59375 L 6.625 5.40625 C 5.988281 4.882812 5.484375 4.269531 5.109375 3.5625 C 4.742188 2.851562 4.519531 2.109375 4.4375 1.328125 C 4.363281 0.554688 4.429688 -0.203125 4.640625 -0.953125 C 4.859375 -1.710938 5.234375 -2.421875 5.765625 -3.078125 L 12.90625 -11.84375 C 13.4375 -12.488281 14.050781 -12.992188 14.75 -13.359375 C 15.457031 -13.722656 16.191406 -13.941406 16.953125 -14.015625 C 17.722656 -14.097656 18.492188 -14.03125 19.265625 -13.8125 C 20.035156 -13.59375 20.738281 -13.222656 21.375 -12.703125 L 26.53125 -8.515625 C 27.175781 -7.984375 27.679688 -7.363281 28.046875 -6.65625 C 28.410156 -5.957031 28.628906 -5.222656 28.703125 -4.453125 C 28.785156 -3.679688 28.722656 -2.910156 28.515625 -2.140625 C 28.304688 -1.378906 27.9375 -0.675781 27.40625 -0.03125 L 27.25 0.15625 C 27.113281 0.3125 26.941406 0.398438 26.734375 0.421875 C 26.523438 0.441406 26.347656 0.390625 26.203125 0.265625 Z M 23.734375 -1.75 "/></g></g></g><g fill="#5271ff" fill-opacity="1"><g transform="translate(52.628639, 290.261625)"><g><path d="M 24.921875 -12.375 C 25.640625 -11.957031 26.234375 -11.425781 26.703125 -10.78125 C 27.171875 -10.144531 27.5 -9.445312 27.6875 -8.6875 C 27.882812 -7.9375 27.9375 -7.164062 27.84375 -6.375 C 27.75 -5.59375 27.492188 -4.847656 27.078125 -4.140625 L 21.328125 5.609375 C 20.910156 6.316406 20.378906 6.898438 19.734375 7.359375 C 19.085938 7.828125 18.390625 8.15625 17.640625 8.34375 C 16.898438 8.53125 16.132812 8.578125 15.34375 8.484375 C 14.550781 8.390625 13.796875 8.132812 13.078125 7.71875 L 7.359375 4.34375 C 6.628906 3.914062 6.035156 3.378906 5.578125 2.734375 C 5.117188 2.085938 4.789062 1.390625 4.59375 0.640625 C 4.394531 -0.0976562 4.34375 -0.859375 4.4375 -1.640625 C 4.539062 -2.429688 4.800781 -3.179688 5.21875 -3.890625 L 10.96875 -13.640625 C 11.382812 -14.347656 11.910156 -14.929688 12.546875 -15.390625 C 13.191406 -15.859375 13.890625 -16.191406 14.640625 -16.390625 C 15.390625 -16.585938 16.15625 -16.632812 16.9375 -16.53125 C 17.71875 -16.4375 18.472656 -16.175781 19.203125 -15.75 Z M 23.046875 -6.515625 C 23.242188 -6.847656 23.289062 -7.191406 23.1875 -7.546875 C 23.09375 -7.898438 22.878906 -8.171875 22.546875 -8.359375 L 16.828125 -11.734375 C 16.492188 -11.929688 16.148438 -11.984375 15.796875 -11.890625 C 15.453125 -11.804688 15.179688 -11.597656 14.984375 -11.265625 L 9.234375 -1.515625 C 9.035156 -1.171875 8.984375 -0.828125 9.078125 -0.484375 C 9.179688 -0.148438 9.398438 0.113281 9.734375 0.3125 L 15.453125 3.6875 C 15.785156 3.875 16.125 3.929688 16.46875 3.859375 C 16.820312 3.785156 17.097656 3.578125 17.296875 3.234375 Z M 23.046875 -6.515625 "/></g></g></g><g fill="#5271ff" fill-opacity="1"><g transform="translate(83.651242, 307.516695)"><g><path d="M 3.03125 1.21875 C 2.84375 1.144531 2.703125 1.007812 2.609375 0.8125 C 2.523438 0.625 2.523438 0.429688 2.609375 0.234375 L 10.75 -20.046875 C 10.820312 -20.234375 10.957031 -20.363281 11.15625 -20.4375 C 11.351562 -20.519531 11.546875 -20.523438 11.734375 -20.453125 L 22.796875 -16.015625 C 23.546875 -15.710938 24.203125 -15.273438 24.765625 -14.703125 C 25.335938 -14.140625 25.773438 -13.5 26.078125 -12.78125 C 26.390625 -12.070312 26.554688 -11.320312 26.578125 -10.53125 C 26.597656 -9.738281 26.453125 -8.953125 26.140625 -8.171875 L 21.9375 2.3125 C 21.625 3.09375 21.1875 3.757812 20.625 4.3125 C 20.0625 4.863281 19.421875 5.289062 18.703125 5.59375 C 17.992188 5.894531 17.234375 6.054688 16.421875 6.078125 C 15.617188 6.097656 14.84375 5.957031 14.09375 5.65625 Z M 8.40625 -1.65625 L 15.828125 1.328125 C 16.179688 1.472656 16.523438 1.46875 16.859375 1.3125 C 17.191406 1.164062 17.429688 0.914062 17.578125 0.5625 L 21.78125 -9.921875 C 21.925781 -10.285156 21.925781 -10.632812 21.78125 -10.96875 C 21.644531 -11.300781 21.398438 -11.539062 21.046875 -11.6875 L 13.625 -14.671875 Z M 8.40625 -1.65625 "/></g></g></g><g fill="#5271ff" fill-opacity="1"><g transform="translate(116.917076, 319.906908)"><g><path d="M 24.734375 -14.125 C 24.679688 -13.925781 24.566406 -13.773438 24.390625 -13.671875 C 24.222656 -13.566406 24.046875 -13.539062 23.859375 -13.59375 L 11.59375 -16.46875 L 10.53125 -11.90625 L 21.640625 -9.296875 C 21.828125 -9.253906 21.976562 -9.144531 22.09375 -8.96875 C 22.207031 -8.800781 22.238281 -8.625 22.1875 -8.4375 L 21.453125 -5.3125 C 21.410156 -5.101562 21.296875 -4.945312 21.109375 -4.84375 C 20.929688 -4.738281 20.75 -4.707031 20.5625 -4.75 L 9.453125 -7.359375 L 8.390625 -2.828125 L 20.65625 0.046875 C 20.84375 0.0976562 20.988281 0.210938 21.09375 0.390625 C 21.207031 0.566406 21.238281 0.753906 21.1875 0.953125 L 20.46875 4.03125 C 20.414062 4.238281 20.300781 4.394531 20.125 4.5 C 19.957031 4.613281 19.78125 4.644531 19.59375 4.59375 L 3.484375 0.8125 C 3.273438 0.769531 3.117188 0.660156 3.015625 0.484375 C 2.921875 0.316406 2.898438 0.128906 2.953125 -0.078125 L 7.953125 -21.359375 C 7.992188 -21.546875 8.097656 -21.695312 8.265625 -21.8125 C 8.429688 -21.925781 8.617188 -21.960938 8.828125 -21.921875 L 24.9375 -18.140625 C 25.125 -18.085938 25.269531 -17.972656 25.375 -17.796875 C 25.476562 -17.617188 25.507812 -17.4375 25.46875 -17.25 Z M 24.734375 -14.125 "/></g></g></g><g fill="#5271ff" fill-opacity="1"><g transform="translate(151.634225, 327.140331)"><g/></g></g><g fill="#5271ff" fill-opacity="1"><g transform="translate(187.045193, 329.071351)"><g><path d="M 20.78125 -2.171875 C 20.875 -1.992188 20.878906 -1.832031 20.796875 -1.6875 C 20.722656 -1.550781 20.582031 -1.472656 20.375 -1.453125 L 16.734375 -1.203125 C 16.535156 -1.179688 16.332031 -1.234375 16.125 -1.359375 C 15.925781 -1.484375 15.773438 -1.632812 15.671875 -1.8125 L 11.140625 -10.140625 L 6.53125 -9.8125 L 7.15625 -1.265625 C 7.164062 -1.054688 7.101562 -0.875 6.96875 -0.71875 C 6.832031 -0.5625 6.660156 -0.476562 6.453125 -0.46875 L 3.25 -0.234375 C 3.0625 -0.222656 2.882812 -0.28125 2.71875 -0.40625 C 2.5625 -0.539062 2.476562 -0.710938 2.46875 -0.921875 L 0.90625 -22.71875 C 0.882812 -22.914062 0.941406 -23.097656 1.078125 -23.265625 C 1.222656 -23.429688 1.390625 -23.519531 1.578125 -23.53125 L 13.484375 -24.375 C 14.304688 -24.4375 15.09375 -24.332031 15.84375 -24.0625 C 16.601562 -23.800781 17.273438 -23.421875 17.859375 -22.921875 C 18.441406 -22.421875 18.914062 -21.816406 19.28125 -21.109375 C 19.65625 -20.410156 19.875 -19.640625 19.9375 -18.796875 L 20.078125 -16.828125 C 20.128906 -16.148438 20.066406 -15.492188 19.890625 -14.859375 C 19.710938 -14.222656 19.445312 -13.632812 19.09375 -13.09375 C 18.75 -12.550781 18.320312 -12.078125 17.8125 -11.671875 C 17.3125 -11.273438 16.75 -10.960938 16.125 -10.734375 Z M 14.15625 -15.046875 C 14.53125 -15.078125 14.835938 -15.234375 15.078125 -15.515625 C 15.316406 -15.796875 15.425781 -16.125 15.40625 -16.5 L 15.265625 -18.46875 C 15.234375 -18.851562 15.078125 -19.164062 14.796875 -19.40625 C 14.523438 -19.644531 14.203125 -19.75 13.828125 -19.71875 L 5.875 -19.15625 L 6.203125 -14.484375 Z M 14.15625 -15.046875 "/></g></g></g><g fill="#5271ff" fill-opacity="1"><g transform="translate(222.378336, 325.649525)"><g><path d="M 9.515625 -26.109375 C 9.722656 -26.148438 9.9375 -26.125 10.15625 -26.03125 C 10.375 -25.945312 10.535156 -25.820312 10.640625 -25.65625 L 18.109375 -14.84375 C 18.222656 -14.6875 18.335938 -14.472656 18.453125 -14.203125 C 18.566406 -13.941406 18.644531 -13.71875 18.6875 -13.53125 L 20.515625 -5.421875 C 20.566406 -5.210938 20.535156 -5.019531 20.421875 -4.84375 C 20.304688 -4.664062 20.15625 -4.554688 19.96875 -4.515625 L 16.84375 -3.8125 C 16.632812 -3.769531 16.441406 -3.800781 16.265625 -3.90625 C 16.097656 -4.007812 15.988281 -4.164062 15.9375 -4.375 L 15.078125 -8.203125 L 5.984375 -6.15625 L 6.84375 -2.328125 C 6.894531 -2.117188 6.859375 -1.925781 6.734375 -1.75 C 6.617188 -1.570312 6.46875 -1.460938 6.28125 -1.421875 L 3.1875 -0.71875 C 2.988281 -0.675781 2.800781 -0.707031 2.625 -0.8125 C 2.445312 -0.925781 2.332031 -1.085938 2.28125 -1.296875 L 0.453125 -9.40625 C 0.410156 -9.59375 0.382812 -9.832031 0.375 -10.125 C 0.375 -10.414062 0.390625 -10.65625 0.421875 -10.84375 L 2.46875 -23.796875 C 2.519531 -24.003906 2.625 -24.191406 2.78125 -24.359375 C 2.9375 -24.535156 3.113281 -24.648438 3.3125 -24.703125 Z M 5.109375 -10.71875 L 13.875 -12.703125 L 8.15625 -21 L 6.6875 -20.671875 Z M 5.109375 -10.71875 "/></g></g></g><g fill="#5271ff" fill-opacity="1"><g transform="translate(256.79373, 316.947793)"><g><path d="M 3.046875 -1.1875 C 2.859375 -1.113281 2.664062 -1.117188 2.46875 -1.203125 C 2.28125 -1.285156 2.144531 -1.425781 2.0625 -1.625 L -5.90625 -21.96875 C -5.976562 -22.15625 -5.972656 -22.34375 -5.890625 -22.53125 C -5.804688 -22.726562 -5.671875 -22.863281 -5.484375 -22.9375 L 5.609375 -27.296875 C 6.367188 -27.585938 7.148438 -27.71875 7.953125 -27.6875 C 8.753906 -27.664062 9.507812 -27.5 10.21875 -27.1875 C 10.925781 -26.882812 11.5625 -26.453125 12.125 -25.890625 C 12.6875 -25.335938 13.117188 -24.664062 13.421875 -23.875 L 17.546875 -13.359375 C 17.859375 -12.578125 17.992188 -11.789062 17.953125 -11 C 17.921875 -10.21875 17.753906 -9.46875 17.453125 -8.75 C 17.148438 -8.039062 16.710938 -7.398438 16.140625 -6.828125 C 15.566406 -6.265625 14.898438 -5.835938 14.140625 -5.546875 Z M 4.984375 -6.96875 L 12.4375 -9.890625 C 12.789062 -10.023438 13.035156 -10.257812 13.171875 -10.59375 C 13.316406 -10.9375 13.316406 -11.285156 13.171875 -11.640625 L 9.046875 -22.15625 C 8.910156 -22.519531 8.675781 -22.773438 8.34375 -22.921875 C 8.007812 -23.066406 7.664062 -23.070312 7.3125 -22.9375 L -0.140625 -20.015625 Z M 4.984375 -6.96875 "/></g></g></g><g fill="#5271ff" fill-opacity="1"><g transform="translate(289.506997, 303.164412)"><g><path d="M 1.3125 -27.765625 C 1.5 -27.867188 1.707031 -27.90625 1.9375 -27.875 C 2.175781 -27.851562 2.367188 -27.78125 2.515625 -27.65625 L 12.875 -19.5625 C 13.019531 -19.445312 13.1875 -19.273438 13.375 -19.046875 C 13.570312 -18.828125 13.71875 -18.632812 13.8125 -18.46875 L 17.984375 -11.28125 C 18.085938 -11.09375 18.109375 -10.898438 18.046875 -10.703125 C 17.992188 -10.503906 17.882812 -10.351562 17.71875 -10.25 L 14.9375 -8.65625 C 14.757812 -8.550781 14.570312 -8.523438 14.375 -8.578125 C 14.175781 -8.628906 14.023438 -8.75 13.921875 -8.9375 L 11.953125 -12.328125 L 3.875 -7.640625 L 5.84375 -4.25 C 5.945312 -4.0625 5.96875 -3.867188 5.90625 -3.671875 C 5.851562 -3.472656 5.742188 -3.320312 5.578125 -3.21875 L 2.828125 -1.640625 C 2.648438 -1.535156 2.457031 -1.507812 2.25 -1.5625 C 2.050781 -1.613281 1.898438 -1.734375 1.796875 -1.921875 L -2.375 -9.109375 C -2.46875 -9.273438 -2.5625 -9.492188 -2.65625 -9.765625 C -2.75 -10.046875 -2.804688 -10.285156 -2.828125 -10.484375 L -4.734375 -23.46875 C -4.742188 -23.664062 -4.695312 -23.875 -4.59375 -24.09375 C -4.5 -24.3125 -4.363281 -24.472656 -4.1875 -24.578125 Z M 1.703125 -11.765625 L 9.46875 -16.265625 L 1.546875 -22.484375 L 0.234375 -21.734375 Z M 1.703125 -11.765625 "/></g></g></g><g fill="#5271ff" fill-opacity="1"><g transform="translate(319.772579, 284.613568)"><g><path d="M 15.84375 -13.59375 C 16.03125 -13.5 16.128906 -13.367188 16.140625 -13.203125 C 16.160156 -13.046875 16.09375 -12.90625 15.9375 -12.78125 L 13.09375 -10.5 C 12.9375 -10.375 12.738281 -10.300781 12.5 -10.28125 C 12.269531 -10.269531 12.054688 -10.304688 11.859375 -10.390625 L 3.40625 -14.6875 L -0.203125 -11.796875 L 5.15625 -5.09375 C 5.28125 -4.9375 5.332031 -4.753906 5.3125 -4.546875 C 5.300781 -4.347656 5.210938 -4.179688 5.046875 -4.046875 L 2.546875 -2.046875 C 2.390625 -1.921875 2.207031 -1.867188 2 -1.890625 C 1.789062 -1.910156 1.625 -2 1.5 -2.15625 L -12.171875 -19.21875 C -12.296875 -19.375 -12.347656 -19.554688 -12.328125 -19.765625 C -12.304688 -19.972656 -12.21875 -20.140625 -12.0625 -20.265625 L -2.765625 -27.71875 C -2.109375 -28.238281 -1.394531 -28.601562 -0.625 -28.8125 C 0.132812 -29.03125 0.898438 -29.09375 1.671875 -29 C 2.441406 -28.914062 3.175781 -28.691406 3.875 -28.328125 C 4.570312 -27.960938 5.179688 -27.453125 5.703125 -26.796875 L 6.9375 -25.265625 C 7.363281 -24.722656 7.6875 -24.140625 7.90625 -23.515625 C 8.132812 -22.898438 8.257812 -22.269531 8.28125 -21.625 C 8.300781 -20.976562 8.210938 -20.347656 8.015625 -19.734375 C 7.828125 -19.117188 7.546875 -18.539062 7.171875 -18 Z M 3.078125 -20.421875 C 3.378906 -20.660156 3.550781 -20.960938 3.59375 -21.328125 C 3.632812 -21.703125 3.535156 -22.039062 3.296875 -22.34375 L 2.0625 -23.875 C 1.820312 -24.175781 1.519531 -24.34375 1.15625 -24.375 C 0.789062 -24.414062 0.457031 -24.316406 0.15625 -24.078125 L -6.0625 -19.09375 L -3.140625 -15.4375 Z M 3.078125 -20.421875 "/></g></g></g><g fill="#5271ff" fill-opacity="1"><g transform="translate(346.8964, 261.71161)"><g/></g></g><path fill="#403029" d="M 141.296875 197.074219 C 139.914062 197.074219 138.550781 196.609375 137.460938 195.742188 L 67.4375 140.648438 C 65.929688 139.464844 65.066406 137.6875 65.066406 135.777344 C 65.066406 133.863281 65.929688 132.089844 67.433594 130.894531 L 137.460938 75.8125 C 138.550781 74.945312 139.914062 74.480469 141.296875 74.480469 C 143.210938 74.480469 144.996094 75.335938 146.167969 76.847656 C 147.191406 78.148438 147.65625 79.773438 147.457031 81.410156 C 147.265625 83.058594 146.429688 84.527344 145.132812 85.550781 L 81.308594 135.777344 L 145.132812 185.992188 C 146.429688 187.027344 147.265625 188.496094 147.457031 190.132812 C 147.65625 191.78125 147.191406 193.398438 146.167969 194.707031 C 144.996094 196.207031 143.210938 197.074219 141.296875 197.074219 " fill-opacity="1" fill-rule="nonzero"/><g clip-path="url(#1d122bf5c4)"><path fill="#5271ff" d="M 141.296875 71.839844 C 139.320312 71.839844 137.386719 72.503906 135.835938 73.730469 L 65.800781 128.824219 C 63.652344 130.527344 62.425781 133.050781 62.425781 135.777344 C 62.425781 138.503906 63.660156 141.039062 65.800781 142.730469 L 135.835938 197.824219 C 137.378906 199.039062 139.320312 199.714844 141.296875 199.714844 C 144.035156 199.714844 146.570312 198.480469 148.25 196.335938 C 149.71875 194.484375 150.363281 192.171875 150.085938 189.824219 C 149.800781 187.480469 148.628906 185.378906 146.769531 183.921875 L 85.578125 135.777344 L 146.769531 87.632812 C 148.628906 86.164062 149.800781 84.074219 150.085938 81.726562 C 150.363281 79.382812 149.71875 77.070312 148.25 75.210938 C 146.570312 73.066406 144.023438 71.839844 141.296875 71.839844 Z M 141.296875 77.121094 C 142.351562 77.121094 143.398438 77.585938 144.097656 78.472656 C 145.320312 80.027344 145.046875 82.265625 143.503906 83.480469 L 77.03125 135.777344 L 143.503906 188.074219 C 145.046875 189.289062 145.320312 191.527344 144.097656 193.070312 C 143.398438 193.96875 142.351562 194.433594 141.296875 194.433594 C 140.527344 194.433594 139.753906 194.1875 139.097656 193.671875 L 69.066406 138.578125 C 68.210938 137.902344 67.707031 136.867188 67.707031 135.777344 C 67.707031 134.679688 68.210938 133.652344 69.066406 132.976562 L 139.097656 77.882812 C 139.742188 77.363281 140.527344 77.121094 141.296875 77.121094 " fill-opacity="1" fill-rule="nonzero"/></g><path fill="#403029" d="M 233.695312 197.074219 C 231.785156 197.074219 230.007812 196.207031 228.816406 194.707031 C 226.703125 192.023438 227.167969 188.113281 229.859375 185.992188 L 293.691406 135.777344 L 229.859375 85.550781 C 227.167969 83.441406 226.703125 79.53125 228.816406 76.847656 C 230.007812 75.335938 231.785156 74.480469 233.695312 74.480469 C 235.078125 74.480469 236.441406 74.945312 237.53125 75.8125 L 307.5625 130.894531 C 309.066406 132.089844 309.921875 133.863281 309.921875 135.777344 C 309.921875 137.6875 309.066406 139.464844 307.554688 140.648438 L 237.53125 195.742188 C 236.441406 196.609375 235.078125 197.074219 233.695312 197.074219 " fill-opacity="1" fill-rule="nonzero"/><g clip-path="url(#76bd5aec08)"><path fill="#5271ff" d="M 233.695312 71.839844 C 230.96875 71.839844 228.433594 73.066406 226.746094 75.210938 C 223.722656 79.042969 224.386719 84.613281 228.222656 87.632812 L 289.414062 135.777344 L 228.222656 183.921875 C 224.386719 186.929688 223.722656 192.507812 226.746094 196.335938 C 228.433594 198.480469 230.96875 199.714844 233.695312 199.714844 C 235.671875 199.714844 237.605469 199.039062 239.15625 197.824219 L 309.191406 142.730469 C 311.335938 141.039062 312.5625 138.503906 312.5625 135.777344 C 312.5625 133.050781 311.335938 130.527344 309.203125 128.824219 L 239.167969 73.730469 C 237.617188 72.503906 235.671875 71.839844 233.695312 71.839844 Z M 233.695312 77.121094 C 234.46875 77.121094 235.25 77.363281 235.894531 77.882812 L 305.925781 132.976562 C 306.78125 133.652344 307.277344 134.679688 307.277344 135.777344 C 307.277344 136.867188 306.78125 137.902344 305.925781 138.578125 L 235.894531 193.671875 C 235.25 194.1875 234.46875 194.433594 233.695312 194.433594 C 232.640625 194.433594 231.59375 193.96875 230.894531 193.070312 C 229.679688 191.527344 229.945312 189.289062 231.488281 188.074219 L 297.960938 135.777344 L 231.488281 83.480469 C 229.945312 82.265625 229.679688 80.027344 230.894531 78.472656 C 231.59375 77.585938 232.648438 77.121094 233.695312 77.121094 " fill-opacity="1" fill-rule="nonzero"/></g><path fill="#403029" d="M 152.695312 230.320312 C 151.925781 230.320312 151.175781 230.171875 150.457031 229.898438 C 148.914062 229.296875 147.6875 228.132812 147.023438 226.621094 C 146.347656 225.101562 146.316406 223.421875 146.90625 221.878906 L 215.304688 45.195312 C 216.222656 42.828125 218.546875 41.234375 221.082031 41.234375 C 221.851562 41.234375 222.613281 41.382812 223.332031 41.65625 C 226.511719 42.890625 228.105469 46.496094 226.871094 49.683594 L 158.484375 226.359375 C 157.566406 228.726562 155.230469 230.320312 152.695312 230.320312 " fill-opacity="1" fill-rule="nonzero"/><g clip-path="url(#7c4bcd81ee)"><path fill="#5271ff" d="M 221.082031 38.59375 C 217.457031 38.59375 214.140625 40.875 212.839844 44.246094 L 144.445312 220.917969 C 143.601562 223.125 143.652344 225.523438 144.605469 227.691406 C 145.566406 229.84375 147.296875 231.515625 149.503906 232.359375 C 150.53125 232.761719 151.597656 232.960938 152.695312 232.960938 C 156.320312 232.960938 159.636719 230.691406 160.949219 227.308594 L 229.332031 50.636719 C 231.097656 46.082031 228.824219 40.949219 224.273438 39.195312 C 223.257812 38.792969 222.179688 38.59375 221.082031 38.59375 Z M 221.082031 43.875 C 221.515625 43.875 221.949219 43.960938 222.371094 44.117188 C 224.207031 44.824219 225.117188 46.886719 224.410156 48.722656 L 156.011719 225.398438 C 155.476562 226.8125 154.121094 227.679688 152.695312 227.679688 C 152.261719 227.679688 151.828125 227.605469 151.40625 227.4375 C 149.570312 226.730469 148.660156 224.65625 149.378906 222.832031 L 217.765625 46.15625 C 218.3125 44.742188 219.65625 43.875 221.082031 43.875 " fill-opacity="1" fill-rule="nonzero"/></g></svg>